<?xml version="1.0" encoding="UTF-8" standalone="no"?>
<svg
   xmlns:dc="http://purl.org/dc/elements/1.1/"
   xmlns:cc="http://creativecommons.org/ns#"
   xmlns:rdf="http://www.w3.org/1999/02/22-rdf-syntax-ns#"
   xmlns:svg="http://www.w3.org/2000/svg"
   xmlns="http://www.w3.org/2000/svg"
   version="1.1"
   id="svg2"
   viewBox="0 0 1080 1080"
   height="12in"
   width="12in">
  <defs
     id="defs4" />
  <metadata
     id="metadata7">
    <rdf:RDF>
      <cc:Work
         rdf:about="">
        <dc:format>image/svg+xml</dc:format>
        <dc:type
           rdf:resource="http://purl.org/dc/dcmitype/StillImage" />
        <dc:title></dc:title>
      </cc:Work>
    </rdf:RDF>
  </metadata>
  <g
     transform="translate(0,27.63782)"
     id="layer1">
    <path
       style="fill:#0b0c10"
       id="path3030"
       d="m 549.09725,924.2228 c -7.30908,-1.91022 -9.05901,-5.63512 -13.93719,-29.66214 -3.63984,-17.92759 -28.94424,-39.74963 -76.39824,-65.88301 -45.53596,-25.07753 -94.54754,-72.12309 -114.21466,-109.63336 -16.82178,-32.08511 -26.65169,-69.86475 -26.71029,-102.65927 -0.0376,-19.4632 -1.50564,-25.70353 -6.05609,-25.69541 -3.30592,0.005 -21.29504,5.44988 -39.97595,12.09844 -18.68121,6.64819 -33.96907,10.2243 -33.97318,7.94702 -0.0177,-9.12868 35.95989,-68.76026 59.16918,-98.07418 23.76427,-30.01495 65.33105,-67.908 91.05073,-83.00402 l 12.34042,-7.24308 -6.2735,28.2011 c -7.6734,34.4958 -2.29406,90.04283 13.65118,140.95563 5.95536,19.01593 8.37861,32.61459 5.81199,32.61921 -2.42045,0.005 -16.2705,-6.6021 -30.77759,-14.68101 -14.507,-8.07883 -27.3041,-14.68705 -28.43793,-14.68506 -1.13379,0.002 0.42715,8.21387 3.4652,18.24911 22.96531,75.81709 83.94072,135.30532 144.04119,140.52767 18.43415,1.60234 22.36438,0.63581 26.12632,-6.42397 2.77437,-5.20529 5.4086,-76.9595 7.05238,-192.0679 2.36485,-165.63454 1.96996,-183.756 -4.00389,-183.7453 -3.64571,0.005 -58.42789,-5.57947 -121.73863,-12.41285 -63.31112,-6.83374 -115.5844,-12.42423 -116.16335,-12.42315 -0.57852,3e-4 -1.07586,-13.05286 -1.10437,-29.00804 l -0.0499,-29.00995 122.09189,-3.31949 122.09192,-3.31951 -0.0562,-31.36643 c -0.05,-29.14886 -0.93926,-32.24728 -12.54914,-43.8153 -22.16231,-22.08325 -22.07444,-57.00759 0.1988,-79.36144 34.9755,-35.100833 96.34575,-10.11132 96.38934,39.24891 0.0313,18.13064 -12.18401,43.17235 -23.08027,47.37602 -8.24939,3.18258 -9.07913,64.00859 -0.90949,66.63674 2.89627,0.93164 57.8438,2.88429 122.10565,4.33902 l 116.83968,2.64485 0.0499,28.9927 c 0.0313,15.94584 -0.50034,28.99363 -1.17417,28.99481 -0.67477,0.001 -53.16206,5.77892 -116.63862,12.83933 -63.47654,7.06041 -117.85868,12.84137 -120.84882,12.84675 -6.43207,0.0126 -6.77448,36.70242 -2.21858,237.58522 3.33183,146.89542 3.06121,145.54819 29.1867,145.50147 38.11169,-0.0681 90.97986,-35.26606 119.13601,-79.31671 13.30682,-20.81828 35.92288,-76.3387 32.48999,-79.75933 -1.07579,-1.07235 -14.11043,4.8763 -28.96573,13.21858 -14.85537,8.34221 -28.99471,15.17178 -31.42066,15.1761 -2.57838,0.005 -0.30084,-13.00881 5.47714,-31.32498 18.55356,-58.78917 22.90789,-109.64776 12.72394,-148.6209 -5.62087,-21.51025 -5.58666,-21.69689 3.12705,-17.11866 33.48967,17.59592 86.64561,68.98623 116.06716,112.21312 16.66761,24.48833 38.30488,64.67337 38.31646,71.16252 0.003,2.06096 -15.29711,-1.63819 -34.00209,-8.2195 -18.70447,-6.58179 -36.37408,-11.96206 -39.26528,-11.95686 -3.60646,0.005 -5.48284,8.93067 -5.97824,28.42994 -2.1599,85.07405 -55.22291,163.17683 -144.64395,212.89862 -55.63349,30.93463 -74.55411,50.44854 -74.50696,76.84391 0.0252,15.03525 -19.4266,22.40511 -42.92832,16.26397 z m 26.25402,-730.23397 c 22.98151,-10.52087 22.94468,-43.35666 -0.0563,-53.78906 -13.26805,-6.01674 -30.48565,1.23298 -37.7642,15.90147 -6.39132,12.8806 -0.25152,31.48489 12.39476,37.568 12.11704,5.82769 13.36374,5.84315 25.43017,0.32085 z" />
  </g>
</svg>
